<svg xmlns="http://www.w3.org/2000/svg" xmlns:xlink="http://www.w3.org/1999/xlink"><symbol id="fb-logo" viewBox="0 0 12 22">
<path d="M7.375 7.5625V4.8125C7.375 4.0535 7.991 3.4375 8.75 3.4375H10.125V0H7.375C5.09662 0 3.25 1.84663 3.25 4.125V7.5625H0.5V11H3.25V22H7.375V11H10.125L11.5 7.5625H7.375Z"/>
</symbol><symbol id="loop" viewBox="0 0 18 18">
<path d="M7.87498 12.825C10.6502 12.825 12.9 10.5752 12.9 7.79996C12.9 5.02473 10.6502 2.77496 7.87498 2.77496C5.09974 2.77496 2.84998 5.02473 2.84998 7.79996C2.84998 10.5752 5.09974 12.825 7.87498 12.825Z" stroke="#F5F5F5" stroke-width="1.5" stroke-miterlimit="10" fill="none"/>
<path d="M11.475 11.475L16.2 16.2" stroke="#F5F5F5" stroke-width="1.5" stroke-miterlimit="10" stroke-linecap="round" stroke-linejoin="round" fill="none"/>
</symbol><symbol id="twitter-logo" viewBox="0 0 20 18">
<path d="M20 2.79875C19.2563 3.125 18.4637 3.34125 17.6375 3.44625C18.4875 2.93875 19.1363 2.14125 19.4412 1.18C18.6488 1.6525 17.7738 1.98625 16.8412 2.1725C16.0887 1.37125 15.0162 0.875 13.8462 0.875C11.5763 0.875 9.74875 2.7175 9.74875 4.97625C9.74875 5.30125 9.77625 5.61375 9.84375 5.91125C6.435 5.745 3.41875 4.11125 1.3925 1.6225C1.03875 2.23625 0.83125 2.93875 0.83125 3.695C0.83125 5.115 1.5625 6.37375 2.6525 7.1025C1.99375 7.09 1.3475 6.89875 0.8 6.5975C0.8 6.61 0.8 6.62625 0.8 6.6425C0.8 8.635 2.22125 10.29 4.085 10.6712C3.75125 10.7625 3.3875 10.8062 3.01 10.8062C2.7475 10.8062 2.4825 10.7913 2.23375 10.7362C2.765 12.36 4.2725 13.5538 6.065 13.5925C4.67 14.6838 2.89875 15.3412 0.98125 15.3412C0.645 15.3412 0.3225 15.3263 0 15.285C1.81625 16.4563 3.96875 17.125 6.29 17.125C13.835 17.125 17.96 10.875 17.96 5.4575C17.96 5.27625 17.9538 5.10125 17.945 4.9275C18.7588 4.35 19.4425 3.62875 20 2.79875Z"/>
</symbol><symbol id="vk-logo" viewBox="0 0 24 14">
<path d="M23.7861 12.3674C23.7216 12.2593 23.3226 11.3923 21.4024 9.61015C19.3923 7.74401 19.6623 8.04703 22.0835 4.82029C23.5581 2.85515 24.1476 1.65506 23.9631 1.14202C23.7876 0.652985 22.703 0.781994 22.703 0.781994L19.0968 0.802996C19.0968 0.802996 18.8297 0.766993 18.6302 0.885502C18.4367 1.00251 18.3122 1.27253 18.3122 1.27253C18.3122 1.27253 17.7407 2.79364 16.9786 4.08674C15.372 6.81544 14.7284 6.95945 14.4659 6.78994C13.8554 6.39541 14.0084 5.20282 14.0084 4.35676C14.0084 1.71206 14.4089 0.609481 13.2268 0.32446C12.8338 0.229953 12.5458 0.166948 11.5422 0.156448C10.2551 0.142947 9.16451 0.160948 8.54797 0.46247C8.13694 0.663485 7.82042 1.11202 8.01393 1.13752C8.25245 1.16902 8.79249 1.28303 9.07901 1.67306C9.44954 2.1756 9.43604 3.30668 9.43604 3.30668C9.43604 3.30668 9.64905 6.41941 8.9395 6.80644C8.45196 7.07196 7.78441 6.53042 6.35181 4.05374C5.61825 2.78614 5.06321 1.38354 5.06321 1.38354C5.06321 1.38354 4.9567 1.12252 4.76619 0.983009C4.53517 0.813497 4.21115 0.759493 4.21115 0.759493L0.781893 0.780494C0.781893 0.780494 0.267355 0.795495 0.0783407 1.01901C-0.0896718 1.21853 0.0648397 1.62956 0.0648397 1.62956C0.0648397 1.62956 2.75004 7.91052 5.78926 11.0773C8.57797 13.98 11.7432 13.7895 11.7432 13.7895H13.1773C13.1773 13.7895 13.6108 13.7415 13.8314 13.5029C14.0354 13.2839 14.0279 12.8729 14.0279 12.8729C14.0279 12.8729 13.9994 10.9482 14.8934 10.6647C15.774 10.3857 16.9051 12.5249 18.1037 13.3484C19.0097 13.971 19.6983 13.8345 19.6983 13.8345L22.904 13.7895C22.904 13.7895 24.5812 13.686 23.7861 12.3674Z"/>
</symbol></svg>